<svg xmlns="http://www.w3.org/2000/svg" xmlns:xlink="http://www.w3.org/1999/xlink" version="1.1" id="Layer_1" x="0px" y="0px" viewBox="0 0 219.5 33.9" style="enable-background:new 0 0 219.5 33.9;" xml:space="preserve">
<g id="Secondary_-_White">
	<g>
		<path d="M37.5,1.9h3.1v28.2h12v3H37.5V1.9z" fill="#d90000"/>
		<path d="M89.3,7.7l-2.5,1.9c-1.4-1.8-3-3.1-4.9-4c-1.9-0.9-4-1.4-6.3-1.4c-2.5,0-4.8,0.6-6.9,1.8c-2.1,1.2-3.8,2.8-4.9,4.8    c-1.2,2-1.8,4.3-1.8,6.8c0,3.8,1.3,7,3.9,9.5c2.6,2.5,5.9,3.8,9.9,3.8c4.4,0,8-1.7,11-5.1l2.5,1.9c-1.6,2-3.5,3.5-5.8,4.6    c-2.3,1.1-4.9,1.6-7.8,1.6c-5.5,0-9.8-1.8-12.9-5.5c-2.6-3.1-4-6.8-4-11.1c0-4.6,1.6-8.4,4.8-11.5s7.2-4.7,12-4.7    c2.9,0,5.5,0.6,7.9,1.7S87.8,5.6,89.3,7.7z" fill="#d90000"/>
		<path d="M98.1,1.9h3.1V15h15.9V1.9h3.1v31.2h-3.1V18.1h-15.9v15.1h-3.1V1.9z" fill="#d90000"/>
		<path d="M130.5,1.9h17.9V5h-14.8v9.8h14.6v3.1h-14.6v12.3h14.6v3.1h-17.8V1.9z" fill="#d90000"/>
		<path d="M155,33.1l4.5-31.2h0.5l12.7,25.6l12.6-25.6h0.5l4.5,31.2h-3.1l-3.1-22.3l-11,22.3h-0.8L161,10.6L158,33.1H155z" fill="#d90000"/>
		<path d="M196.5,1.9h3.6l8,12.9l7.9-12.9h3.6l-9.9,16.3v14.9h-3.1V18.2L196.5,1.9z" fill="#d90000"/>
		<polygon points="14.2,10.2 24,33.1 28.4,33.1 14.2,0 0,33.1 4.4,33.1   " fill="#d90000"/>
	</g>
</g>
<g id="Layer_1_00000049217363539020642600000018066516272899132561_">
</g>
</svg>