<svg width="230" height="41" viewBox="0 0 230 41" fill="none" xmlns="http://www.w3.org/2000/svg">
<path d="M111.862 25.0621C111.643 25.5491 110.499 27.7551 107.634 27.7551C104.316 27.7551 103.022 25.0031 103.022 22.9581C103.022 19.5771 105.299 16.5391 108.651 16.5391C112.259 16.5391 113.119 19.2261 113.202 19.7131H118.508C118.826 17.7291 117.252 11.6631 108.855 11.6631C102.713 11.6631 97.7988 16.5691 97.7988 23.1261C97.7988 28.4911 101.152 32.6281 107.366 32.6281C115.111 32.6281 117.202 26.5531 117.458 25.0621H111.862Z" fill="white"/>
<path d="M71.1395 26.54C71.1395 26.23 71.2215 25.644 71.4945 24.412C71.7585 23.177 75.5075 5.90601 75.5075 5.90601H70.5275L66.3955 24.958C66.2215 25.759 66.1465 26.549 66.1465 27.247C66.1465 31.425 69.3785 32.653 71.9655 32.653C72.8915 32.653 73.7505 32.499 73.9655 32.471C74.0475 32.053 74.8285 28.466 74.8665 28.309C74.7545 28.317 74.2055 28.358 73.5685 28.358C71.7175 28.359 71.1395 27.573 71.1395 26.54Z" fill="white"/>
<path d="M134.919 11.729L125.997 19.763L129.004 5.86499H123.988L118.293 32.232H123.305L124.69 25.825L127.774 23.37L132.038 32.232H137.618L131.567 20.363L141.866 11.729H134.919Z" fill="white"/>
<path d="M43.7646 24.082C44.1816 22.192 47.7146 5.87305 47.7146 5.87305C47.7146 5.87305 53.8026 5.87305 57.2036 5.87305C64.0886 5.87305 65.7826 9.70005 65.7826 12.022C65.7826 17.159 60.9306 18.519 60.3366 18.705C60.8896 18.887 64.0386 20.135 64.0386 24.169C64.0386 28.558 59.9926 32.235 53.7196 32.235C53.7196 32.235 51.4696 32.235 50.8586 32.235C45.5906 32.236 42.7616 28.619 43.7646 24.082ZM58.6216 23.759C58.6216 22.52 57.8236 20.948 54.2806 20.948H49.6796L48.3016 27.325H53.5106C56.8816 27.325 58.6216 25.806 58.6216 23.759ZM60.3286 13.135C60.3286 11.853 59.3526 10.75 56.9626 10.75H51.8856L50.7346 16.073H56.0246C58.8736 16.072 60.3286 14.697 60.3286 13.135Z" fill="white"/>
<path d="M139.581 24.082C139.999 22.192 143.531 5.87305 143.531 5.87305C143.531 5.87305 149.619 5.87305 153.024 5.87305C159.909 5.87305 161.604 9.70005 161.604 12.022C161.604 17.159 156.752 18.519 156.157 18.705C156.702 18.887 159.86 20.135 159.86 24.169C159.86 28.558 155.809 32.235 149.536 32.235C149.536 32.235 147.288 32.235 146.677 32.235C141.407 32.236 138.577 28.619 139.581 24.082ZM154.438 23.759C154.438 22.52 153.639 20.948 150.098 20.948H145.494L144.117 27.325H149.328C152.698 27.325 154.438 25.806 154.438 23.759ZM156.144 13.135C156.144 11.853 155.172 10.75 152.776 10.75H147.701L146.552 16.073H151.843C154.69 16.072 156.144 14.697 156.144 13.135Z" fill="white"/>
<path d="M196.038 11.741C190.724 11.741 187.11 14.886 185.892 20.788C185.368 23.325 183.441 32.243 183.441 32.243H188.418C188.418 32.243 190.252 23.763 190.832 21.098C191.592 17.605 193.439 16.419 195.922 16.419C196.725 16.419 197.236 16.51 197.497 16.547C197.634 15.844 198.328 12.691 198.494 11.918C197.955 11.849 197.104 11.741 196.038 11.741Z" fill="white"/>
<path d="M212.973 40.0871L229.677 11.7411H224.301L216.625 25.0811L214.832 11.7251C214.832 11.7251 212.096 11.7251 209.08 11.7251C202.492 11.7251 199.078 14.7381 197.867 20.5031C197.26 23.3801 195.33 32.2431 195.33 32.2431H200.309C200.309 32.2431 202.136 23.8251 202.863 20.4281C203.566 17.1301 206.012 16.1221 208.65 16.6841L209.699 11.8451C210.476 16.4411 212.852 31.1241 212.852 31.1241L207.64 40.0871H212.973Z" fill="white"/>
<path d="M85.5172 23.499C86.6132 23.337 89.8202 22.842 90.2572 22.78C90.1752 23.122 90.0462 23.669 89.9512 24.073C89.3722 26.552 86.8472 28.144 84.0622 28.144C82.2852 28.144 81.2472 27.188 81.2472 26.052C81.2482 25.114 82.1082 24.003 85.5172 23.499ZM83.6542 18.16C83.7772 17.957 85.0582 15.982 88.2492 15.982C90.2332 15.982 91.2502 16.706 91.2502 17.582C91.2502 18.818 89.2502 19.14 85.7862 19.636C79.8352 20.496 76.0742 22.343 76.0742 26.641C76.0742 29.687 78.6032 32.655 83.0952 32.655C86.8272 32.655 88.7782 30.402 88.9512 30.229C88.9682 30.77 89.0382 31.58 89.0962 32.233C89.5052 32.233 92.9562 32.233 94.2422 32.233C94.0642 31.344 93.6962 29.637 94.3072 26.906C94.6302 25.468 95.5382 21.335 96.0012 19.054C96.8822 14.739 94.5142 11.689 88.4462 11.689C80.6442 11.689 78.3962 17.297 78.0322 18.161H83.6542V18.16Z" fill="white"/>
<path d="M176.118 26.0901C175.936 26.4911 174.725 28.1811 172.018 28.1811C168.12 28.1811 167.233 24.8761 167.323 23.9701C169.403 23.9701 181.42 23.9701 182.507 23.9701C182.594 23.5991 182.937 22.2471 182.937 20.8591C182.937 16.0561 179.681 11.6641 173.114 11.6641C167.109 11.6641 162.291 16.7141 162.291 22.7111C162.291 28.5131 165.775 32.6291 171.936 32.6291C179.549 32.6291 181.6 26.6661 181.797 26.0911C180.44 26.0901 176.118 26.0901 176.118 26.0901ZM173.167 16.2171C176.519 16.2171 177.8 18.2631 177.663 19.9041C175.737 19.9041 170.009 19.9041 168.075 19.9041C168.323 18.8621 169.922 16.2171 173.167 16.2171Z" fill="white"/>
<path d="M12.2666 2.864C12.2666 1.6 11.4926 0 8.23964 0C6.90464 0 3.23064 0 3.23064 0L1.80664 6.588C1.80664 6.588 4.51364 6.588 7.02864 6.588C11.1056 6.588 12.2666 4.658 12.2666 2.864Z" fill="white"/>
<path d="M25.7597 2.864C25.7597 1.6 24.9877 0 21.7357 0C20.3997 0 16.7257 0 16.7257 0L15.3027 6.587C15.3027 6.587 18.0087 6.587 20.5217 6.587C24.6007 6.588 25.7597 4.658 25.7597 2.864Z" fill="white"/>
<path d="M10.46 12.7789C10.46 11.5149 9.686 9.91089 6.433 9.91089C5.098 9.91089 1.424 9.91089 1.424 9.91089L0 16.5029C0 16.5029 2.707 16.5029 5.22 16.5029C9.298 16.5029 10.46 14.5679 10.46 12.7789Z" fill="white"/>
<path d="M23.9522 12.7789C23.9522 11.5149 23.1772 9.91089 19.9272 9.91089C18.5902 9.91089 14.9182 9.91089 14.9182 9.91089L13.4922 16.5029C13.4922 16.5029 16.1992 16.5029 18.7142 16.5029C22.7932 16.5029 23.9522 14.5679 23.9522 12.7789Z" fill="white"/>
<path d="M38.0694 8.75789C38.0694 7.49289 37.2944 5.88989 34.0444 5.88989C32.7074 5.88989 29.0354 5.88989 29.0354 5.88989L27.6094 12.4809C27.6094 12.4809 30.3184 12.4809 32.8294 12.4809C36.9084 12.4809 38.0694 10.5509 38.0694 8.75789Z" fill="white"/>
<path d="M36.124 19.081C36.124 17.816 35.351 16.217 32.099 16.217C30.764 16.217 27.09 16.217 27.09 16.217L25.666 22.805C25.666 22.805 28.371 22.805 30.886 22.805C34.964 22.805 36.124 20.87 36.124 19.081Z" fill="white"/>
<path d="M22.0146 23.103C22.0146 21.833 21.2426 20.23 17.9926 20.23C16.6546 20.23 12.9806 20.23 12.9806 20.23L11.5566 26.821C11.5566 26.821 14.2636 26.821 16.7766 26.821C20.8556 26.822 22.0146 24.892 22.0146 23.103Z" fill="white"/>
</svg>
