<svg width="1024" height="177" viewBox="0 0 1024 177" fill="none" xmlns="http://www.w3.org/2000/svg">
<path d="M94.4939 148.778H66.6393L74.2412 113.455H101.002C118.346 113.455 122.454 122.036 122.454 128.832C122.454 138.421 116.282 148.778 94.4939 148.778ZM169.774 127.248H141.948L149.55 91.9549H176.253C193.607 91.9549 197.715 100.536 197.715 107.274C197.715 116.901 191.544 127.248 169.774 127.248ZM180.15 71.923H152.315L159.917 36.6104H186.648C203.973 36.6104 208.101 45.201 208.101 51.9679C208.101 61.5663 201.9 71.923 180.15 71.923ZM104.879 93.4714H76.9768L84.5787 58.1396H111.358C128.674 58.1396 132.801 66.7302 132.801 73.5259C132.801 83.1147 126.62 93.4714 104.879 93.4714ZM32.8432 93.4714H5.00781L12.5906 58.1396H39.3126C56.6665 58.1396 60.7938 66.7302 60.7938 73.5259C60.7938 83.1147 54.6029 93.4714 32.8432 93.4714ZM114.497 40.3634H86.6328L94.2251 5.05078H121.005C138.33 5.05078 142.428 13.6318 142.428 20.3987C142.428 29.9971 136.247 40.3634 114.497 40.3634ZM42.4992 40.3634H14.6542L22.2562 5.05078H48.9494C66.3129 5.05078 70.4499 13.6318 70.4499 20.3987C70.4499 29.9971 64.2493 40.3634 42.4992 40.3634Z" fill="#817F7F"/>
<path d="M1006.89 50.3228H1004.76V37.3457H1008.06L1011.95 47.1745L1015.71 37.3457H1018.99V50.3228H1016.86V39.4862H1016.81L1012.58 50.3228H1011.19L1006.97 39.4862H1006.89L1006.89 50.3228ZM1002.89 39.0446H998.865V50.3228H996.734V39.0446H992.789V37.3457H1002.89L1002.89 39.0446Z" fill="#817F7F"/>
<path d="M750.568 170.26V37.8112L830.014 104.031L750.568 170.26ZM458.604 106.315L440.443 95.0658H363.886L428.273 133.901C414.7 137.923 397.375 138.316 381.394 138.316C361.775 138.316 328.564 136.761 315.923 130.033C303.771 123.554 303.714 112.948 303.714 103.224C303.714 93.5109 303.752 80.9945 315.923 74.5348C328.564 67.8063 361.784 66.2418 381.394 66.2418C400.994 66.2418 434.032 68.1807 446.865 74.5348C460.283 81.1769 458.604 106.315 458.604 106.315ZM982.217 37.2545H910.133L866.047 73.9877L821.981 37.2545H699.428V127.259L594.229 37.2545H524.103V146.926L502.68 133.642C505.799 123.429 505.885 112.305 505.885 103.224C505.885 85.8417 505.816 59.0334 484.059 47.4577C461.445 35.4308 416.457 32.6377 381.394 32.6377C346.331 32.6377 301.343 35.4308 278.72 47.4577C256.97 59.0334 256.902 85.8417 256.902 103.224C256.902 120.607 257.008 145.554 278.72 157.1C301.353 169.175 346.302 171.949 381.394 171.949C410.899 171.949 447.316 169.953 471.638 162.159L485.268 170.653H575.013V80.8986L679.924 170.653H822.182L866.047 134.064L909.921 170.653H982.006L902.089 104.031L982.217 37.2545Z" fill="#817F7F"/>
</svg>
