<svg width="808" height="200" viewBox="0 0 808 200" fill="none" xmlns="http://www.w3.org/2000/svg">
<path d="M105.56 0.420484C90.2004 0.420484 75.9581 2.93534 62.8332 7.96666C49.9871 12.998 38.8171 19.986 29.3221 28.9308C20.1064 37.3163 12.8461 47.9376 7.54016 60.7958C3.07193 71.6972 0.558689 83.5765 0 96.4341V109.013H36.8617V96.4341C37.42 86.9302 38.9561 79.2439 41.4694 73.3738C44.8205 65.2679 49.4283 58.0008 55.2924 51.572C62.2739 45.1431 69.5347 40.3914 77.0743 37.3168C85.7313 33.9626 95.2263 32.2855 105.559 32.2855H158.338V0.420484H105.56ZM121.478 94.757L121.479 102.723H121.898C121.339 111.667 119.664 119.913 116.871 127.46C113.241 136.125 108.633 143.253 103.048 148.844C96.9041 154.993 89.6439 159.745 81.2662 163.099C72.6092 166.453 63.1142 168.131 52.7816 168.131H0.00215015V199.996H52.7816C68.1408 199.996 82.383 197.48 95.5079 192.448C108.354 187.417 119.524 180.429 129.019 171.484C138.793 161.701 146.053 151.08 150.8 139.62C155.827 128.439 158.341 116.14 158.341 102.723V94.757H121.478ZM365.688 39.8338C362.057 32.007 357.03 25.0189 350.607 18.8697C343.905 12.9996 335.946 8.38795 326.731 5.03373C316.678 1.95918 306.067 0.421665 294.896 0.421665H216.567V31.8675H291.969C304.535 31.8675 315.007 34.9421 323.385 41.0919C331.204 46.962 335.114 55.9062 335.114 67.9256C335.114 78.8271 331.344 87.6317 323.804 94.3402C315.705 100.769 305.094 103.984 291.969 103.984H216.568V200H251.335V135.851H290.71C301.043 135.851 311.515 134.314 322.127 131.239C331.9 128.165 340.278 123.832 347.26 118.242C354.52 112.652 360.245 105.524 364.434 96.8589C368.622 88.4733 370.717 78.6903 370.717 67.5092C370.717 56.8879 369.039 47.6607 365.688 39.8338ZM557.116 0.00187835V114.045C557.116 132.493 552.648 146.19 543.712 155.134C538.965 160.445 532.402 164.359 524.025 166.874V199.578C530.727 198.74 536.591 197.342 541.618 195.385C551.95 191.751 560.887 186.301 568.426 179.033C575.967 170.927 581.551 161.564 585.182 150.942C589.371 140.041 591.465 127.183 591.465 112.369V0L557.116 0.00187835ZM459.517 0.420484V114.464C459.517 132.353 463.986 146.05 472.922 155.553C478.228 160.864 484.79 164.637 492.61 166.874V199.997C487.863 199.438 481.998 198.04 475.016 195.804C464.405 191.891 455.608 186.301 448.627 179.034C440.807 171.767 435.083 162.542 431.452 151.361C427.543 141.299 425.588 128.44 425.588 112.788V0.419035L459.517 0.420484ZM807.186 199.997L753.151 124.525C760.411 122.289 766.834 119.633 772.419 116.559C778.563 112.646 783.59 108.313 787.499 103.562C791.967 98.2507 795.179 92.5207 797.134 86.371C799.647 79.6626 800.904 72.1153 800.904 63.7298C800.904 53.9467 799.228 45.1421 795.877 37.3152C792.526 29.768 787.639 23.1996 781.216 17.6091C775.072 12.2981 767.253 8.10512 757.758 5.03051C747.984 1.95596 737.652 0.418445 726.761 0.418445H637.955V32.2835H723.828C736.953 32.2835 747.145 35.0788 754.406 40.669C761.666 46.2592 765.297 54.6445 765.297 65.8256C765.297 76.1678 761.666 84.2738 754.406 90.1439C747.145 96.2936 737.092 99.3683 724.246 99.3683H637.955V199.995H672.722V130.393H716.705L765.714 199.995L807.186 199.997Z" fill="white"/>
</svg>
